<mxfile host="app.diagrams.net" modified="2024-05-03T05:52:19.482Z" agent="Mozilla/5.0 (Windows NT 10.0; Win64; x64) AppleWebKit/537.36 (KHTML, like Gecko) Chrome/124.0.0.0 Safari/537.36" version="24.3.1" etag="O2mAKMXUNB5kTab-Xu43" type="github">
  <diagram name="Page-1" id="Eck1LNY4dsugnTcjVuI2">
    <mxGraphModel>
      <root>
        <mxCell id="0" />
        <mxCell id="1" parent="0" />
      </root>
    </mxGraphModel>
  </diagram>
</mxfile>
